<mxfile host="app.diagrams.net" agent="Mozilla/5.0 (Macintosh; Intel Mac OS X 10_15_7) AppleWebKit/537.36 (KHTML, like Gecko) Chrome/137.0.0.0 Safari/537.36" version="27.2.0">
  <diagram name="第 1 页" id="yxJDf75rBR5ytRiiqmBn">
    <mxGraphModel dx="1426" dy="766" grid="1" gridSize="10" guides="1" tooltips="1" connect="1" arrows="1" fold="1" page="1" pageScale="1" pageWidth="827" pageHeight="1169" math="0" shadow="0">
      <root>
        <mxCell id="0" />
        <mxCell id="1" parent="0" />
        <mxCell id="OYZ5Wqq5LKM6xlWpAhAy-1" value="" style="ellipse;whiteSpace=wrap;html=1;aspect=fixed;fillColor=#dae8fc;strokeColor=#6c8ebf;" vertex="1" parent="1">
          <mxGeometry x="310" y="90" width="80" height="80" as="geometry" />
        </mxCell>
        <mxCell id="OYZ5Wqq5LKM6xlWpAhAy-2" value="" style="ellipse;whiteSpace=wrap;html=1;aspect=fixed;fillColor=#f8cecc;strokeColor=#b85450;" vertex="1" parent="1">
          <mxGeometry x="512" y="90" width="80" height="80" as="geometry" />
        </mxCell>
        <mxCell id="OYZ5Wqq5LKM6xlWpAhAy-3" value="" style="ellipse;whiteSpace=wrap;html=1;aspect=fixed;fillColor=#f8cecc;strokeColor=#b85450;" vertex="1" parent="1">
          <mxGeometry x="300" y="280" width="80" height="80" as="geometry" />
        </mxCell>
        <mxCell id="OYZ5Wqq5LKM6xlWpAhAy-4" value="" style="ellipse;whiteSpace=wrap;html=1;aspect=fixed;fillColor=#f8cecc;strokeColor=#b85450;" vertex="1" parent="1">
          <mxGeometry x="190" y="400" width="80" height="80" as="geometry" />
        </mxCell>
        <mxCell id="OYZ5Wqq5LKM6xlWpAhAy-5" value="" style="ellipse;whiteSpace=wrap;html=1;aspect=fixed;fillColor=#f8cecc;strokeColor=#b85450;" vertex="1" parent="1">
          <mxGeometry x="390" y="190" width="80" height="80" as="geometry" />
        </mxCell>
        <mxCell id="OYZ5Wqq5LKM6xlWpAhAy-6" value="" style="ellipse;whiteSpace=wrap;html=1;aspect=fixed;fillColor=#dae8fc;strokeColor=#6c8ebf;" vertex="1" parent="1">
          <mxGeometry x="510" y="290" width="80" height="80" as="geometry" />
        </mxCell>
        <mxCell id="OYZ5Wqq5LKM6xlWpAhAy-7" value="" style="ellipse;whiteSpace=wrap;html=1;aspect=fixed;fillColor=#dae8fc;strokeColor=#6c8ebf;" vertex="1" parent="1">
          <mxGeometry x="650" y="390" width="80" height="80" as="geometry" />
        </mxCell>
        <mxCell id="OYZ5Wqq5LKM6xlWpAhAy-8" value="" style="ellipse;whiteSpace=wrap;html=1;aspect=fixed;fillColor=#dae8fc;strokeColor=#6c8ebf;" vertex="1" parent="1">
          <mxGeometry x="405" y="190" width="80" height="80" as="geometry" />
        </mxCell>
        <mxCell id="OYZ5Wqq5LKM6xlWpAhAy-9" value="&lt;font style=&quot;font-size: 40px;&quot;&gt;1&lt;/font&gt;" style="ellipse;whiteSpace=wrap;html=1;aspect=fixed;" vertex="1" parent="1">
          <mxGeometry x="160" y="550" width="80" height="80" as="geometry" />
        </mxCell>
        <mxCell id="OYZ5Wqq5LKM6xlWpAhAy-10" value="&lt;font style=&quot;font-size: 40px;&quot;&gt;2&lt;/font&gt;" style="ellipse;whiteSpace=wrap;html=1;aspect=fixed;" vertex="1" parent="1">
          <mxGeometry x="268" y="550" width="80" height="80" as="geometry" />
        </mxCell>
        <mxCell id="OYZ5Wqq5LKM6xlWpAhAy-11" value="&lt;font style=&quot;font-size: 40px;&quot;&gt;4&lt;/font&gt;" style="ellipse;whiteSpace=wrap;html=1;aspect=fixed;" vertex="1" parent="1">
          <mxGeometry x="376" y="550" width="80" height="80" as="geometry" />
        </mxCell>
        <mxCell id="OYZ5Wqq5LKM6xlWpAhAy-12" value="&lt;span style=&quot;font-size: 40px;&quot;&gt;6&lt;/span&gt;" style="ellipse;whiteSpace=wrap;html=1;aspect=fixed;" vertex="1" parent="1">
          <mxGeometry x="484" y="550" width="80" height="80" as="geometry" />
        </mxCell>
        <mxCell id="OYZ5Wqq5LKM6xlWpAhAy-13" value="&lt;font style=&quot;font-size: 40px;&quot;&gt;9&lt;/font&gt;" style="ellipse;whiteSpace=wrap;html=1;aspect=fixed;" vertex="1" parent="1">
          <mxGeometry x="592" y="550" width="80" height="80" as="geometry" />
        </mxCell>
        <mxCell id="OYZ5Wqq5LKM6xlWpAhAy-14" value="&lt;font style=&quot;font-size: 40px;&quot;&gt;10&lt;/font&gt;" style="ellipse;whiteSpace=wrap;html=1;aspect=fixed;" vertex="1" parent="1">
          <mxGeometry x="700" y="550" width="80" height="80" as="geometry" />
        </mxCell>
      </root>
    </mxGraphModel>
  </diagram>
</mxfile>
